{
  "source": "C:\\Users\\Peter\\Desktop\\stuff\\MIUN\\quantitative_research\\video_compression\\videos\\HEVC_CLASS_B\\ParkScene_1920x1080_24.y4m",
  "output": "C:\\Users\\Peter\\Desktop\\stuff\\MIUN\\quantitative_research\\video_compression\\compressed_videos\\HEVC_CLASS_B\\h264\\1\\ParkScene_1920x1080_24_h264.mp4",
  "codec": "h264",
  "ok": "Input #0, yuv4mpegpipe, from 'C:\\Users\\Peter\\Desktop\\stuff\\MIUN\\quantitative_research\\video_compression\\videos\\HEVC_CLASS_B\\ParkScene_1920x1080_24.y4m':\n  Duration: 00:00:10.00, start: 0.000000, bitrate: 597198 kb/s\n  Stream #0:0: Video: rawvideo (I420 / 0x30323449), yuv420p(progressive), 1920x1080, 24 fps, 24 tbr, 24 tbn\n[out#0/mp4 @ 0000019a12139880] Codec AVOption b:a (set bitrate (in bits/s)) has not been used for any stream. The most likely reason is either wrong type (e.g. a video option with no video streams) or that it is a private option of some decoder which was not actually used for any stream.\nStream mapping:\n  Stream #0:0 -> #0:0 (rawvideo (native) -> h264 (libx264))\nPress [q] to stop, [?] for help\n[libx264 @ 0000019a1213c8c0] using cpu capabilities: MMX2 SSE2Fast SSSE3 SSE4.2 AVX FMA3 BMI2 AVX2\n[libx264 @ 0000019a1213c8c0] profile High, level 5.0, 4:2:0, 8-bit\n[libx264 @ 0000019a1213c8c0] 264 - core 165 r3222 b35605a - H.264/MPEG-4 AVC codec - Copyleft 2003-2025 - http://www.videolan.org/x264.html - options: cabac=1 ref=5 deblock=1:0:0 analyse=0x3:0x113 me=hex subme=8 psy=1 psy_rd=1.00:0.00 mixed_ref=1 me_range=16 chroma_me=1 trellis=2 8x8dct=1 cqm=0 deadzone=21,11 fast_pskip=1 chroma_qp_offset=-2 threads=18 lookahead_threads=3 sliced_threads=0 nr=0 decimate=1 interlaced=0 bluray_compat=0 constrained_intra=0 bframes=3 b_pyramid=2 b_adapt=1 b_bias=0 direct=3 weightb=1 open_gop=0 weightp=2 keyint=250 keyint_min=24 scenecut=40 intra_refresh=0 rc_lookahead=50 rc=cbr mbtree=1 bitrate=1000 ratetol=1.0 qcomp=0.60 qpmin=0 qpmax=69 qpstep=4 vbv_maxrate=1000 vbv_bufsize=1000 nal_hrd=none filler=0 ip_ratio=1.40 aq=1:1.00\nOutput #0, mp4, to 'C:\\Users\\Peter\\Desktop\\stuff\\MIUN\\quantitative_research\\video_compression\\compressed_videos\\HEVC_CLASS_B\\h264\\1\\ParkScene_1920x1080_24_h264.mp4':\n  Metadata:\n    encoder         : Lavf62.3.100\n  Stream #0:0: Video: h264 (avc1 / 0x31637661), yuv420p(tv, progressive), 1920x1080, q=2-31, 1000 kb/s, 24 fps, 12288 tbn\n    Metadata:\n      encoder         : Lavc62.11.100 libx264\n    Side data:\n      cpb: bitrate max/min/avg: 1000000/0/1000000 buffer size: 1000000 vbv_delay: N/A\nframe=    0 fps=0.0 q=0.0 size=       0KiB time=N/A bitrate=N/A speed=N/A elapsed=0:00:00.50    \nframe=    0 fps=0.0 q=0.0 size=       0KiB time=N/A bitrate=N/A speed=N/A elapsed=0:00:01.02    \nframe=   17 fps= 11 q=42.0 size=       0KiB time=00:00:00.58 bitrate=   0.7kbits/s speed=0.379x elapsed=0:00:01.54    \nframe=   43 fps= 21 q=42.0 size=       0KiB time=00:00:01.66 bitrate=   0.2kbits/s speed=0.812x elapsed=0:00:02.05    \nframe=   64 fps= 25 q=42.0 size=       0KiB time=00:00:02.58 bitrate=   0.1kbits/s speed=1.01x elapsed=0:00:02.56    \nframe=   91 fps= 29 q=42.0 size=     256KiB time=00:00:03.58 bitrate= 585.4kbits/s speed=1.16x elapsed=0:00:03.09    \nframe=  112 fps= 31 q=42.0 size=     256KiB time=00:00:04.58 bitrate= 457.6kbits/s speed=1.27x elapsed=0:00:03.62    \nframe=  140 fps= 34 q=42.0 size=     512KiB time=00:00:05.75 bitrate= 729.5kbits/s speed=1.39x elapsed=0:00:04.13    \nframe=  164 fps= 35 q=42.0 size=     512KiB time=00:00:06.75 bitrate= 621.4kbits/s speed=1.45x elapsed=0:00:04.65    \nframe=  189 fps= 37 q=42.0 size=     512KiB time=00:00:07.79 bitrate= 538.4kbits/s speed=1.51x elapsed=0:00:05.16    \nframe=  223 fps= 39 q=38.0 size=     768KiB time=00:00:09.20 bitrate= 683.3kbits/s speed=1.62x elapsed=0:00:05.67    \n[mp4 @ 0000019a12139980] Starting second pass: moving the moov atom to the beginning of the file\n[out#0/mp4 @ 0000019a12139880] video:917KiB audio:0KiB subtitle:0KiB other streams:0KiB global headers:0KiB muxing overhead: 0.397523%\nframe=  240 fps= 41 q=-1.0 Lsize=     920KiB time=00:00:09.91 bitrate= 760.4kbits/s speed=1.69x elapsed=0:00:05.86    \n[libx264 @ 0000019a1213c8c0] frame I:1     Avg QP:40.41  size: 33611\n[libx264 @ 0000019a1213c8c0] frame P:60    Avg QP:40.34  size:  8678\n[libx264 @ 0000019a1213c8c0] frame B:179   Avg QP:46.05  size:  2144\n[libx264 @ 0000019a1213c8c0] consecutive B-frames:  0.4%  0.0%  1.2% 98.3%\n[libx264 @ 0000019a1213c8c0] mb I  I16..4: 35.1% 59.6%  5.3%\n[libx264 @ 0000019a1213c8c0] mb P  I16..4:  0.6%  1.0%  0.0%  P16..4: 27.7%  2.7%  5.6%  0.0%  0.0%    skip:62.3%\n[libx264 @ 0000019a1213c8c0] mb B  I16..4:  0.0%  0.0%  0.0%  B16..8: 33.9%  0.3%  0.0%  direct: 0.0%  skip:65.7%  L0:34.7% L1:65.2% BI: 0.1%\n[libx264 @ 0000019a1213c8c0] 8x8 transform intra:59.8% inter:72.5%\n[libx264 @ 0000019a1213c8c0] direct mvs  spatial:94.4% temporal:5.6%\n[libx264 @ 0000019a1213c8c0] coded y,uvDC,uvAC intra: 30.3% 27.1% 5.4% inter: 1.4% 1.4% 0.0%\n[libx264 @ 0000019a1213c8c0] i16 v,h,dc,p: 44% 25%  6% 24%\n[libx264 @ 0000019a1213c8c0] i8 v,h,dc,ddl,ddr,vr,hd,vl,hu:  9%  4% 13% 12% 16% 13% 13% 10% 10%\n[libx264 @ 0000019a1213c8c0] i4 v,h,dc,ddl,ddr,vr,hd,vl,hu:  7%  3%  7% 16% 18% 12% 13%  8% 15%\n[libx264 @ 0000019a1213c8c0] i8c dc,h,v,p: 60% 29%  9%  2%\n[libx264 @ 0000019a1213c8c0] Weighted P-Frames: Y:0.0% UV:0.0%\n[libx264 @ 0000019a1213c8c0] ref P L0: 60.5%  8.6% 21.6%  4.3%  5.0%\n[libx264 @ 0000019a1213c8c0] ref B L0: 94.9%  4.0%  0.8%  0.2%\n[libx264 @ 0000019a1213c8c0] ref B L1: 98.2%  1.8%\n[libx264 @ 0000019a1213c8c0] kb/s:750.44\n",
  "seconds": 6.085204601287842,
  "probe_out": {}
}